# Blender v2.74 (sub 0) OBJ File: ''
# www.blender.org
mtllib coin.mtl
o default
v 0.000000 -1.270000 0.158750
v 0.328676 -1.226820 0.158750
v 0.635000 -1.099820 0.158750
v 0.898144 -0.898144 0.158750
v 1.099820 -0.635000 0.158750
v 1.226820 -0.328676 0.158750
v 1.270000 -0.000000 0.158750
v 1.226820 0.328676 0.158750
v 1.099820 0.635000 0.158750
v 0.898144 0.898144 0.158750
v 0.635000 1.099820 0.158750
v 0.328676 1.226820 0.158750
v 0.000000 1.270000 0.158750
v -0.328676 1.226820 0.158750
v -0.635000 1.099820 0.158750
v -0.898144 0.898144 0.158750
v -1.099820 0.635000 0.158750
v -1.226820 0.328676 0.158750
v -1.270000 -0.000000 0.158750
v -1.226820 -0.328676 0.158750
v -1.099820 -0.635000 0.158750
v -0.898144 -0.898144 0.158750
v -0.635000 -1.099820 0.158750
v -0.328676 -1.226820 0.158750
v 0.000000 -0.952500 0.158750
v 0.246507 -0.920115 0.158750
v 0.476250 -0.824865 0.158750
v 0.673608 -0.673608 0.158750
v 0.824865 -0.476250 0.158750
v 0.920115 -0.246507 0.158750
v 0.952500 -0.000000 0.158750
v 0.920115 0.246507 0.158750
v 0.824865 0.476250 0.158750
v 0.673608 0.673608 0.158750
v 0.476250 0.824865 0.158750
v 0.246507 0.920115 0.158750
v 0.000000 0.952500 0.158750
v -0.246507 0.920115 0.158750
v -0.476250 0.824865 0.158750
v -0.673608 0.673608 0.158750
v -0.824865 0.476250 0.158750
v -0.920115 0.246507 0.158750
v -0.952500 -0.000000 0.158750
v -0.920115 -0.246507 0.158750
v -0.824865 -0.476250 0.158750
v -0.673608 -0.673608 0.158750
v -0.476250 -0.824865 0.158750
v -0.246507 -0.920115 0.158750
v 0.000000 -0.952500 0.095250
v 0.246507 -0.920115 0.095250
v 0.476250 -0.824865 0.095250
v -0.246507 -0.920115 0.095250
v 0.673608 -0.673608 0.095250
v 0.824865 -0.476250 0.095250
v 0.920115 -0.246507 0.095250
v 0.952500 -0.000000 0.095250
v 0.920115 0.246507 0.095250
v 0.824865 0.476250 0.095250
v 0.673608 0.673608 0.095250
v 0.476250 0.824865 0.095250
v 0.246507 0.920115 0.095250
v 0.000000 0.952500 0.095250
v -0.246507 0.920115 0.095250
v -0.476250 0.824865 0.095250
v -0.673608 0.673608 0.095250
v -0.824865 0.476250 0.095250
v -0.920115 0.246507 0.095250
v -0.952500 -0.000000 0.095250
v -0.920115 -0.246507 0.095250
v -0.824865 -0.476250 0.095250
v -0.673608 -0.673608 0.095250
v -0.476250 -0.824865 0.095250
v -0.246380 0.615950 0.095250
v -0.246380 -0.615950 0.095250
v 0.246380 -0.615950 0.095250
v 0.246380 0.246380 0.095250
v 0.246380 0.615950 0.095250
v 0.246380 -0.615950 0.055250
v -0.246380 0.615950 0.055250
v -0.246380 -0.615950 0.055250
v 0.246380 0.615950 0.055250
v 0.000000 -1.270000 -0.158750
v 0.328676 -1.226820 -0.158750
v 0.635000 -1.099820 -0.158750
v 0.898144 -0.898144 -0.158750
v 1.099820 -0.635000 -0.158750
v 1.226820 -0.328676 -0.158750
v 1.270000 0.000000 -0.158750
v 1.226820 0.328676 -0.158750
v 1.099820 0.635000 -0.158750
v 0.898144 0.898144 -0.158750
v 0.635000 1.099820 -0.158750
v 0.328676 1.226820 -0.158750
v 0.000000 1.270000 -0.158750
v -0.328676 1.226820 -0.158750
v -0.635000 1.099820 -0.158750
v -0.898144 0.898144 -0.158750
v -1.099820 0.635000 -0.158750
v -1.226820 0.328676 -0.158750
v -1.270000 0.000000 -0.158750
v -1.226820 -0.328676 -0.158750
v -1.099820 -0.635000 -0.158750
v -0.898144 -0.898144 -0.158750
v -0.635000 -1.099820 -0.158750
v -0.328676 -1.226820 -0.158750
v 0.000000 -0.952500 -0.158750
v 0.246507 -0.920115 -0.158750
v 0.476250 -0.824865 -0.158750
v 0.673608 -0.673608 -0.158750
v 0.824865 -0.476250 -0.158750
v 0.920115 -0.246507 -0.158750
v 0.952500 0.000000 -0.158750
v 0.920115 0.246507 -0.158750
v 0.824865 0.476250 -0.158750
v 0.673608 0.673608 -0.158750
v 0.476250 0.824865 -0.158750
v 0.246507 0.920115 -0.158750
v 0.000000 0.952500 -0.158750
v -0.246507 0.920115 -0.158750
v -0.476250 0.824865 -0.158750
v -0.673608 0.673608 -0.158750
v -0.824865 0.476250 -0.158750
v -0.920115 0.246507 -0.158750
v -0.952500 0.000000 -0.158750
v -0.920115 -0.246507 -0.158750
v -0.824865 -0.476250 -0.158750
v -0.673608 -0.673608 -0.158750
v -0.476250 -0.824865 -0.158750
v -0.246507 -0.920115 -0.158750
v 0.000000 -0.952500 -0.095250
v 0.246507 -0.920115 -0.095250
v 0.476250 -0.824865 -0.095250
v -0.246507 -0.920115 -0.095250
v 0.673608 -0.673608 -0.095250
v 0.824865 -0.476250 -0.095250
v 0.920115 -0.246507 -0.095250
v 0.952500 0.000000 -0.095250
v 0.920115 0.246507 -0.095250
v 0.824865 0.476250 -0.095250
v 0.673608 0.673608 -0.095250
v 0.476250 0.824865 -0.095250
v 0.246507 0.920115 -0.095250
v 0.000000 0.952500 -0.095250
v -0.246507 0.920115 -0.095250
v -0.476250 0.824865 -0.095250
v -0.673608 0.673608 -0.095250
v -0.824865 0.476250 -0.095250
v -0.920115 0.246507 -0.095250
v -0.952500 0.000000 -0.095250
v -0.920115 -0.246507 -0.095250
v -0.824865 -0.476250 -0.095250
v -0.673608 -0.673608 -0.095250
v -0.476250 -0.824865 -0.095250
v -0.246380 0.615950 -0.095250
v -0.246380 -0.615950 -0.095250
v 0.246380 -0.615950 -0.095250
v 0.246380 0.246380 -0.095250
v 0.246380 0.615950 -0.095250
v 0.246380 -0.615950 -0.055250
v -0.246380 0.615950 -0.055250
v -0.246380 -0.615950 -0.055250
v 0.246380 0.615950 -0.055250
vt 0.500000 1.000000
vt 0.975528 0.654508
vt 0.793893 0.095491
vt 0.206107 0.095492
vt 0.024472 0.654509
vt 0.000000 0.000000
vt 1.000000 0.000000
vt 1.000000 1.000000
vt 0.000000 1.000000
vt 0.821394 0.883022
vt 0.992404 0.586824
vt 0.933013 0.250000
vt 0.671010 0.030154
vt 0.328990 0.030154
vt 0.066987 0.250000
vt 0.007596 0.586824
vt 0.178606 0.883022
vt 0.793893 0.904508
vt 0.975528 0.345491
vt 0.500000 0.000000
vt 0.024472 0.345491
vt 0.206108 0.904509
vn -0.000000 -0.000000 1.000000
vn -0.383000 0.923800 0.000000
vn -0.130300 0.991500 0.000000
vn -0.000000 -1.000000 0.000000
vn 0.000000 1.000000 0.000000
vn 0.383000 0.923800 0.000000
vn 0.608300 0.793700 0.000000
vn 0.793700 0.608300 0.000000
vn 0.923800 0.383000 0.000000
vn 0.991500 0.130300 0.000000
vn 0.991500 -0.130300 0.000000
vn 0.923800 -0.383000 0.000000
vn 0.793700 -0.608300 0.000000
vn 0.608300 -0.793700 0.000000
vn 0.383000 -0.923800 0.000000
vn 0.130300 -0.991500 0.000000
vn -0.130300 -0.991500 0.000000
vn -0.383000 -0.923800 0.000000
vn -0.793700 -0.608300 0.000000
vn -0.923800 -0.383000 0.000000
vn -0.991500 -0.130300 0.000000
vn -0.991500 0.130300 0.000000
vn -0.923800 0.383000 0.000000
vn -0.793700 0.608300 0.000000
vn 0.130300 0.991500 0.000000
vn -0.608300 -0.793700 0.000000
vn -0.608300 0.793700 0.000000
vn -1.000000 -0.000000 0.000000
vn 1.000000 -0.000000 0.000000
vn 0.000000 0.000000 -1.000000
usemtl Physical
s 1
f 50/1/1 75/2/1 74/3/1 52/4/1 49/5/1
f 61/1/1 62/2/1 63/3/1 73/4/1 77/5/1
f 79/6/1 80/7/1 78/8/1 81/9/1
f 27/6/2 51/7/2 50/8/2 26/9/2
f 50/6/3 49/7/3 25/8/3 26/9/3
f 79/6/4 81/7/4 77/8/4 73/9/4
f 75/6/5 78/7/5 80/8/5 74/9/5
f 52/6/6 72/7/6 47/8/6 48/9/6
f 72/6/7 71/7/7 46/8/7 47/9/7
f 71/6/8 70/7/8 45/8/8 46/9/8
f 70/6/9 69/7/9 44/8/9 45/9/9
f 69/6/10 68/7/10 43/8/10 44/9/10
f 68/6/11 67/7/11 42/8/11 43/9/11
f 67/6/12 66/7/12 41/8/12 42/9/12
f 66/6/13 65/7/13 40/8/13 41/9/13
f 65/6/14 64/7/14 39/8/14 40/9/14
f 64/6/15 63/7/15 38/8/15 39/9/15
f 63/6/16 62/7/16 37/8/16 38/9/16
f 62/6/17 61/7/17 36/8/17 37/9/17
f 61/6/18 60/7/18 35/8/18 36/9/18
f 59/6/19 58/7/19 33/8/19 34/9/19
f 58/6/20 57/7/20 32/8/20 33/9/20
f 57/6/21 56/7/21 31/8/21 32/9/21
f 56/6/22 55/7/22 30/8/22 31/9/22
f 55/6/23 54/7/23 29/8/23 30/9/23
f 54/6/24 53/7/24 28/8/24 29/9/24
f 49/6/25 52/7/25 48/8/25 25/9/25
f 60/6/26 59/7/26 34/8/26 35/9/26
f 53/6/27 51/7/27 27/8/27 28/9/27
f 77/1/28 81/2/28 78/3/28 75/4/28 76/5/28
f 79/6/29 73/7/29 74/8/29 80/9/29
f 2/6/1 26/7/1 25/8/1 1/9/1
f 25/6/1 48/7/1 24/8/1 1/9/1
f 48/6/1 47/7/1 23/8/1 24/9/1
f 47/6/1 46/7/1 22/8/1 23/9/1
f 46/6/1 45/7/1 21/8/1 22/9/1
f 45/6/1 44/7/1 20/8/1 21/9/1
f 44/6/1 43/7/1 19/8/1 20/9/1
f 43/6/1 42/7/1 18/8/1 19/9/1
f 42/6/1 41/7/1 17/8/1 18/9/1
f 41/6/1 40/7/1 16/8/1 17/9/1
f 40/6/1 39/7/1 15/8/1 16/9/1
f 39/6/1 38/7/1 14/8/1 15/9/1
f 38/6/1 37/7/1 13/8/1 14/9/1
f 37/6/1 36/7/1 12/8/1 13/9/1
f 36/6/1 35/7/1 11/8/1 12/9/1
f 35/6/1 34/7/1 10/8/1 11/9/1
f 34/6/1 33/7/1 9/8/1 10/9/1
f 33/6/1 32/7/1 8/8/1 9/9/1
f 32/6/1 31/7/1 7/8/1 8/9/1
f 31/6/1 30/7/1 6/8/1 7/9/1
f 30/6/1 29/7/1 5/8/1 6/9/1
f 29/6/1 28/7/1 4/8/1 5/9/1
f 28/6/1 27/7/1 3/8/1 4/9/1
f 27/6/1 26/7/1 2/8/1 3/9/1
f 50/6/1 51/7/1 53/8/1 75/9/1
f 74/6/1 71/7/1 72/8/1 52/9/1
f 130/1/30 133/2/30 155/3/30 156/4/30 131/5/30
f 158/1/30 154/2/30 144/3/30 143/4/30 142/5/30
f 162/6/30 159/7/30 161/8/30 160/9/30
f 107/6/2 131/7/2 132/8/2 108/9/2
f 107/6/3 106/7/3 130/8/3 131/9/3
f 154/6/4 158/7/4 162/8/4 160/9/4
f 155/6/5 161/7/5 159/8/5 156/9/5
f 129/6/6 128/7/6 153/8/6 133/9/6
f 128/6/7 127/7/7 152/8/7 153/9/7
f 127/6/8 126/7/8 151/8/8 152/9/8
f 126/6/9 125/7/9 150/8/9 151/9/9
f 125/6/10 124/7/10 149/8/10 150/9/10
f 124/6/11 123/7/11 148/8/11 149/9/11
f 123/6/12 122/7/12 147/8/12 148/9/12
f 122/6/13 121/7/13 146/8/13 147/9/13
f 121/6/14 120/7/14 145/8/14 146/9/14
f 120/6/15 119/7/15 144/8/15 145/9/15
f 119/6/16 118/7/16 143/8/16 144/9/16
f 118/6/17 117/7/17 142/8/17 143/9/17
f 117/6/18 116/7/18 141/8/18 142/9/18
f 115/6/19 114/7/19 139/8/19 140/9/19
f 114/6/20 113/7/20 138/8/20 139/9/20
f 113/6/21 112/7/21 137/8/21 138/9/21
f 112/6/22 111/7/22 136/8/22 137/9/22
f 111/6/23 110/7/23 135/8/23 136/9/23
f 110/6/24 109/7/24 134/8/24 135/9/24
f 106/6/25 129/7/25 133/8/25 130/9/25
f 116/6/26 115/7/26 140/8/26 141/9/26
f 109/6/27 108/7/27 132/8/27 134/9/27
f 157/1/28 156/2/28 159/3/28 162/4/28 158/5/28
f 161/6/29 155/7/29 154/8/29 160/9/29
f 82/6/30 106/7/30 107/8/30 83/9/30
f 82/6/30 105/7/30 129/8/30 106/9/30
f 105/6/30 104/7/30 128/8/30 129/9/30
f 104/6/30 103/7/30 127/8/30 128/9/30
f 103/6/30 102/7/30 126/8/30 127/9/30
f 102/6/30 101/7/30 125/8/30 126/9/30
f 101/6/30 100/7/30 124/8/30 125/9/30
f 100/6/30 99/7/30 123/8/30 124/9/30
f 99/6/30 98/7/30 122/8/30 123/9/30
f 98/6/30 97/7/30 121/8/30 122/9/30
f 97/6/30 96/7/30 120/8/30 121/9/30
f 96/6/30 95/7/30 119/8/30 120/9/30
f 95/6/30 94/7/30 118/8/30 119/9/30
f 94/6/30 93/7/30 117/8/30 118/9/30
f 93/6/30 92/7/30 116/8/30 117/9/30
f 92/6/30 91/7/30 115/8/30 116/9/30
f 91/6/30 90/7/30 114/8/30 115/9/30
f 90/6/30 89/7/30 113/8/30 114/9/30
f 89/6/30 88/7/30 112/8/30 113/9/30
f 88/6/30 87/7/30 111/8/30 112/9/30
f 87/6/30 86/7/30 110/8/30 111/9/30
f 86/6/30 85/7/30 109/8/30 110/9/30
f 85/6/30 84/7/30 108/8/30 109/9/30
f 84/6/30 83/7/30 107/8/30 108/9/30
f 156/6/30 134/7/30 132/8/30 131/9/30
f 133/6/30 153/7/30 152/8/30 155/9/30
f 94/6/3 95/7/3 14/8/3 13/9/3
f 1/6/16 82/7/16 83/8/16 2/9/16
f 93/6/25 94/7/25 13/8/25 12/9/25
f 92/6/6 93/7/6 12/8/6 11/9/6
f 91/6/7 92/7/7 11/8/7 10/9/7
f 90/6/8 91/7/8 10/8/8 9/9/8
f 89/6/9 90/7/9 9/8/9 8/9/9
f 88/6/10 89/7/10 8/8/10 7/9/10
f 87/6/11 88/7/11 7/8/11 6/9/11
f 86/6/12 87/7/12 6/8/12 5/9/12
f 85/6/13 86/7/13 5/8/13 4/9/13
f 84/6/14 85/7/14 4/8/14 3/9/14
f 83/6/15 84/7/15 3/8/15 2/9/15
f 1/6/17 24/7/17 105/8/17 82/9/17
f 24/6/18 23/7/18 104/8/18 105/9/18
f 23/6/26 22/7/26 103/8/26 104/9/26
f 22/6/19 21/7/19 102/8/19 103/9/19
f 21/6/20 20/7/20 101/8/20 102/9/20
f 20/6/21 19/7/21 100/8/21 101/9/21
f 19/6/22 18/7/22 99/8/22 100/9/22
f 18/6/23 17/7/23 98/8/23 99/9/23
f 17/6/24 16/7/24 97/8/24 98/9/24
f 16/6/27 15/7/27 96/8/27 97/9/27
f 15/6/2 14/7/2 95/8/2 96/9/2
f 74/1/1 73/10/1 65/11/1 66/12/1 67/13/1 68/14/1 69/15/1 70/16/1 71/17/1
f 53/1/1 54/18/1 55/2/1 56/19/1 57/3/1 58/20/1 59/4/1 77/21/1 76/5/1 75/22/1
f 59/6/1 60/7/1 61/8/1 77/9/1
f 73/6/1 63/7/1 64/8/1 65/9/1
f 158/6/30 142/7/30 141/8/30 140/9/30
f 146/6/30 145/7/30 144/8/30 154/9/30
f 152/1/30 151/10/30 150/11/30 149/12/30 148/13/30 147/14/30 146/15/30 154/16/30 155/17/30
f 156/1/30 157/18/30 158/2/30 140/19/30 139/3/30 138/20/30 137/4/30 136/21/30 135/5/30 134/22/30
